<mxfile host="Electron" modified="2023-09-17T12:49:29.789Z" agent="Mozilla/5.0 (Macintosh; Intel Mac OS X 10_15_7) AppleWebKit/537.36 (KHTML, like Gecko) draw.io/21.3.7 Chrome/112.0.5615.204 Electron/24.5.0 Safari/537.36" etag="QG5YzHCoPVdCxhhwSZaR" version="21.3.7" type="device">
  <diagram name="Page-1" id="FEgxfB4j-3DlC0F8_lZU">
    <mxGraphModel dx="1420" dy="840" grid="1" gridSize="10" guides="1" tooltips="1" connect="1" arrows="1" fold="1" page="1" pageScale="1" pageWidth="827" pageHeight="1169" math="0" shadow="0">
      <root>
        <mxCell id="0" />
        <mxCell id="1" parent="0" />
        <mxCell id="bCj24SdLGRbZGqFNeFoi-2" value="&lt;b&gt;Resource&lt;/b&gt;" style="rounded=1;whiteSpace=wrap;html=1;fillColor=#dae8fc;strokeColor=#6c8ebf;" vertex="1" parent="1">
          <mxGeometry x="156" y="40" width="120" height="60" as="geometry" />
        </mxCell>
        <mxCell id="bCj24SdLGRbZGqFNeFoi-3" value="&lt;b&gt;User&lt;/b&gt;" style="rounded=1;whiteSpace=wrap;html=1;fillColor=#e1d5e7;strokeColor=#9673a6;" vertex="1" parent="1">
          <mxGeometry x="20" y="140" width="120" height="60" as="geometry" />
        </mxCell>
        <mxCell id="bCj24SdLGRbZGqFNeFoi-4" value="&lt;b&gt;Group&lt;/b&gt;" style="rounded=1;whiteSpace=wrap;html=1;fillColor=#e1d5e7;strokeColor=#9673a6;" vertex="1" parent="1">
          <mxGeometry x="156" y="140" width="120" height="60" as="geometry" />
        </mxCell>
        <mxCell id="bCj24SdLGRbZGqFNeFoi-5" value="&lt;b&gt;Others&lt;/b&gt;" style="rounded=1;whiteSpace=wrap;html=1;fillColor=#e1d5e7;strokeColor=#9673a6;dashed=1;" vertex="1" parent="1">
          <mxGeometry x="292" y="140" width="120" height="60" as="geometry" />
        </mxCell>
        <mxCell id="bCj24SdLGRbZGqFNeFoi-6" value="&lt;b&gt;Enterprise User&lt;/b&gt;" style="rounded=1;whiteSpace=wrap;html=1;fillColor=#ffe6cc;strokeColor=#d79b00;" vertex="1" parent="1">
          <mxGeometry x="22.047199999999997" y="236.22" width="120" height="60" as="geometry" />
        </mxCell>
        <mxCell id="bCj24SdLGRbZGqFNeFoi-7" value="Common Attributes:&lt;br&gt;i&lt;b&gt;d, externalId, meta&lt;/b&gt;" style="rounded=0;whiteSpace=wrap;html=1;" vertex="1" parent="1">
          <mxGeometry x="362" y="40" width="120" height="60" as="geometry" />
        </mxCell>
        <mxCell id="bCj24SdLGRbZGqFNeFoi-8" value="" style="endArrow=classic;html=1;rounded=0;exitX=0.5;exitY=0;exitDx=0;exitDy=0;entryX=0.25;entryY=1;entryDx=0;entryDy=0;" edge="1" parent="1" source="bCj24SdLGRbZGqFNeFoi-3" target="bCj24SdLGRbZGqFNeFoi-2">
          <mxGeometry width="50" height="50" relative="1" as="geometry">
            <mxPoint x="82" y="120" as="sourcePoint" />
            <mxPoint x="132" y="70" as="targetPoint" />
          </mxGeometry>
        </mxCell>
        <mxCell id="bCj24SdLGRbZGqFNeFoi-9" value="" style="endArrow=classic;html=1;rounded=0;exitX=0.5;exitY=0;exitDx=0;exitDy=0;entryX=0.5;entryY=1;entryDx=0;entryDy=0;" edge="1" parent="1" source="bCj24SdLGRbZGqFNeFoi-4" target="bCj24SdLGRbZGqFNeFoi-2">
          <mxGeometry width="50" height="50" relative="1" as="geometry">
            <mxPoint x="90" y="150" as="sourcePoint" />
            <mxPoint x="196" y="110" as="targetPoint" />
          </mxGeometry>
        </mxCell>
        <mxCell id="bCj24SdLGRbZGqFNeFoi-10" value="" style="endArrow=classic;html=1;rounded=0;exitX=0.5;exitY=0;exitDx=0;exitDy=0;entryX=0.75;entryY=1;entryDx=0;entryDy=0;dashed=1;" edge="1" parent="1" source="bCj24SdLGRbZGqFNeFoi-5" target="bCj24SdLGRbZGqFNeFoi-2">
          <mxGeometry width="50" height="50" relative="1" as="geometry">
            <mxPoint x="100" y="160" as="sourcePoint" />
            <mxPoint x="206" y="120" as="targetPoint" />
          </mxGeometry>
        </mxCell>
        <mxCell id="bCj24SdLGRbZGqFNeFoi-11" value="" style="endArrow=classic;html=1;rounded=0;exitX=0.5;exitY=0;exitDx=0;exitDy=0;entryX=0.5;entryY=1;entryDx=0;entryDy=0;" edge="1" parent="1" source="bCj24SdLGRbZGqFNeFoi-6" target="bCj24SdLGRbZGqFNeFoi-3">
          <mxGeometry width="50" height="50" relative="1" as="geometry">
            <mxPoint x="110" y="170" as="sourcePoint" />
            <mxPoint x="216" y="130" as="targetPoint" />
          </mxGeometry>
        </mxCell>
        <mxCell id="bCj24SdLGRbZGqFNeFoi-12" value="" style="endArrow=none;dashed=1;html=1;rounded=0;exitX=1;exitY=0.5;exitDx=0;exitDy=0;entryX=0;entryY=0.5;entryDx=0;entryDy=0;" edge="1" parent="1" source="bCj24SdLGRbZGqFNeFoi-2" target="bCj24SdLGRbZGqFNeFoi-7">
          <mxGeometry width="50" height="50" relative="1" as="geometry">
            <mxPoint x="192" y="290" as="sourcePoint" />
            <mxPoint x="242" y="240" as="targetPoint" />
          </mxGeometry>
        </mxCell>
      </root>
    </mxGraphModel>
  </diagram>
</mxfile>
